ply
format ascii 1.0
element vertex 102
property float32 x
property float32 y
property float32 z
element face 200
property list uchar int32 vertex_indices
end_header
-0.698487 -0.197229 1.709338
-0.859876 -0.065912 1.635930
0.488857 -0.207761 2.006096
0.209470 -0.248953 1.913829
0.713565 -0.141396 2.138825
0.187367 -0.097119 1.846283
-0.570758 -0.107844 1.709920
-0.425379 -0.180527 1.819425
0.024664 -0.045479 1.880896
-0.799235 -0.135484 1.747882
0.255050 -0.193466 1.867855
0.232736 -0.094759 1.939337
0.654173 -0.155441 2.200446
0.656758 -0.184356 2.061230
0.335336 -0.233720 2.108714
-0.830580 -0.082668 1.746308
0.521947 -0.134230 2.046153
0.818241 -0.192853 1.982508
0.070423 -0.087134 2.035074
0.202889 -0.207767 1.994756
0.386231 -0.267682 2.021218
-0.670298 -0.253465 1.823515
-0.993122 -0.065171 1.624040
0.478345 -0.135808 2.131511
-0.360982 -0.108212 1.775347
-0.680113 -0.178214 1.708852
-0.034702 -0.259222 1.988424
-0.074800 -0.067025 1.871580
0.433335 -0.075120 2.020424
0.814587 -0.252725 2.004673
-1.001494 -0.065446 1.714542
0.685160 -0.215663 2.185754
-0.282253 0.049503 1.786191
-0.232204 -0.226350 1.895262
-0.779029 -0.004825 1.619357
-0.225044 -0.161337 1.815273
0.261293 -0.125420 2.070463
-1.031647 0.008087 1.619434
-0.454015 -0.182041 1.929527
-0.064230 -0.143687 2.055037
-0.129993 -0.070716 1.808444
-0.799205 -0.168395 1.858972
0.304737 -0.151247 1.899515
-0.045291 -0.160895 1.797441
0.036231 -0.215603 1.821380
0.557137 -0.210353 2.138959
-0.174487 -0.237817 1.979987
0.083164 -0.258723 1.951507
-0.082215 -0.024883 1.862485
0.008156 -0.042674 2.014896
-0.122162 -0.035389 1.989339
0.633900 0.110067 2.137627
-0.746299 0.117434 1.708298
0.813388 0.142485 2.054526
-0.834524 0.063749 1.748191
0.590622 0.082043 2.154745
0.455086 -0.025113 2.009234
-1.010456 0.043663 1.727990
0.613940 0.028252 2.097308
-0.561046 0.047139 1.704965
-0.434684 0.136404 1.859402
0.189487 0.081633 1.822644
0.050252 0.055690 2.063634
-0.802974 0.139453 1.791121
0.437023 0.152725 2.067786
-0.295133 0.151134 1.933102
-0.108167 0.033825 1.820214
0.661117 0.084703 2.069894
0.674650 0.033172 2.192122
-0.626305 0.191395 1.844873
-0.779786 0.115019 1.858989
0.283807 0.119622 2.067720
0.227949 0.141134 1.949068
-0.138041 0.145942 2.004239
-0.229016 -0.041519 2.011715
0.393506 0.031081 2.148277
0.007940 0.151961 1.902220
0.514809 0.036580 2.148091
0.169350 0.019599 1.823082
0.178234 0.122738 1.990360
0.203693 0.028622 1.997592
0.138085 -0.048221 1.940187
-0.205362 0.108280 1.840561
-0.864527 0.050606 1.614735
-0.768664 -0.000157 1.710046
0.317249 -0.031083 2.031637
-0.643222 0.165973 1.734245
-0.945195 0.010077 1.547235
-0.981971 0.081404 1.638994
0.317549 0.041507 1.900767
0.268689 -0.004077 1.928437
-0.859716 0.004360 1.808683
-0.392047 -0.021329 1.993259
-0.368902 0.103394 1.956452
-0.742828 0.162615 1.722599
-0.058539 0.030319 2.053089
-0.001674 0.109009 1.813014
-0.619544 0.132765 1.723043
0.321885 0.103648 1.922297
0.833346 0.086200 1.988140
-0.391854 0.083471 1.789320
-0.095515 -0.053138 1.995390
3 23 16 28
3 28 42 11
3 14 45 23
3 20 2 45
3 10 19 3
3 23 36 14
3 1 15 30
3 44 3 47
3 10 42 2
3 47 19 26
3 92 46 74
3 39 19 18
3 27 8 43
3 11 5 18
3 45 31 12
3 2 13 45
3 0 21 41
3 101 18 8
3 19 20 14
3 5 11 42
3 7 38 21
3 25 59 6
3 45 14 20
3 22 1 30
3 44 10 3
3 12 23 45
3 5 42 10
3 23 12 4
3 13 29 31
3 36 11 19
3 10 20 19
3 29 17 4
3 24 25 6
3 41 38 92
3 0 9 25
3 17 29 13
3 19 39 26
3 13 31 45
3 7 21 24
3 34 15 1
3 18 101 39
3 55 68 53
3 68 55 58
3 64 77 51
3 58 77 56
3 71 98 72
3 58 56 89
3 77 64 75
3 94 52 63
3 75 64 71
3 6 59 24
3 80 75 71
3 56 75 85
3 75 80 85
3 79 80 72
3 90 85 80
3 90 78 89
3 98 71 64
3 61 89 78
3 62 80 79
3 98 61 76
3 51 67 64
3 62 81 80
3 49 81 62
3 49 62 95
3 50 49 95
3 50 95 74
3 53 68 99
3 51 53 67
3 58 67 99
3 98 89 61
3 78 96 61
3 91 54 57
3 89 85 90
3 94 97 52
3 67 53 99
3 75 56 77
3 82 76 96
3 86 94 69
3 78 66 96
3 62 73 95
3 88 37 57
3 66 82 96
3 65 73 76
3 79 76 73
3 97 86 69
3 63 69 94
3 98 64 67
3 74 95 73
3 65 60 93
3 93 73 65
3 97 100 59
3 93 92 73
3 54 84 34
3 73 92 74
3 87 37 88
3 48 49 50
3 70 92 69
3 80 71 72
3 53 51 55
3 93 69 92
3 96 76 61
3 89 56 85
3 65 76 82
3 97 60 100
3 91 70 63
3 60 97 69
3 91 63 54
3 69 93 60
3 55 51 77
3 54 63 52
3 82 66 32
3 52 84 54
3 100 32 59
3 94 86 97
3 59 52 97
3 84 52 25
3 81 78 90
3 54 34 83
3 80 81 90
3 25 52 59
3 88 57 54
3 82 100 65
3 98 76 72
3 98 58 89
3 55 77 58
3 98 67 58
3 72 76 79
3 79 73 62
3 99 68 58
3 65 100 60
3 70 69 63
3 32 100 82
3 83 87 88
3 54 83 88
3 27 66 48
3 41 91 15
3 48 78 81
3 81 49 48
3 48 66 78
3 83 34 87
3 91 41 70
3 13 16 4
3 57 30 91
3 8 18 5
3 31 29 4
3 12 31 4
3 33 46 38
3 10 43 5
3 2 16 13
3 17 13 4
3 15 25 9
3 28 11 36
3 46 39 74
3 43 33 35
3 46 26 39
3 43 8 5
3 23 4 16
3 35 33 7
3 35 40 43
3 9 41 15
3 48 50 101
3 0 25 21
3 2 20 10
3 36 19 14
3 41 21 38
3 66 40 35
3 18 19 11
3 33 44 47
3 38 46 92
3 37 87 22
3 38 7 33
3 10 44 43
3 9 0 41
3 44 33 43
3 87 1 22
3 101 50 39
3 27 101 8
3 2 28 16
3 19 47 3
3 42 28 2
3 33 26 46
3 35 24 32
3 36 23 28
3 40 27 43
3 7 24 35
3 25 24 21
3 25 15 84
3 33 47 26
3 40 66 27
3 24 59 32
3 27 48 101
3 15 34 84
3 15 91 30
3 39 50 74
3 32 66 35
3 41 92 70
3 30 37 22
3 87 34 1
3 30 57 37
